<?xml version="1.0" encoding="UTF-8" standalone="no"?>
<!-- Created with Inkscape (http://www.inkscape.org/) -->

<svg
   width="512"
   height="512"
   viewBox="0 0 135.46666 135.46666"
   version="1.1"
   id="svg5"
   xml:space="preserve"
   inkscape:version="1.2.2 (732a01da63, 2022-12-09)"
   sodipodi:docname="android_icon.svg"
   inkscape:export-filename="..\..\..\icon.png"
   inkscape:export-xdpi="96"
   inkscape:export-ydpi="96"
   xmlns:inkscape="http://www.inkscape.org/namespaces/inkscape"
   xmlns:sodipodi="http://sodipodi.sourceforge.net/DTD/sodipodi-0.dtd"
   xmlns="http://www.w3.org/2000/svg"
   xmlns:svg="http://www.w3.org/2000/svg"><sodipodi:namedview
     id="namedview7"
     pagecolor="#ffffff"
     bordercolor="#666666"
     borderopacity="1.0"
     inkscape:showpageshadow="2"
     inkscape:pageopacity="0.0"
     inkscape:pagecheckerboard="0"
     inkscape:deskcolor="#d1d1d1"
     inkscape:document-units="mm"
     showgrid="false"
     inkscape:zoom="1.5052949"
     inkscape:cx="253.43871"
     inkscape:cy="255.76384"
     inkscape:window-width="1920"
     inkscape:window-height="1017"
     inkscape:window-x="-8"
     inkscape:window-y="-8"
     inkscape:window-maximized="1"
     inkscape:current-layer="layer1" /><defs
     id="defs2" /><g
     inkscape:label="Capa 1"
     inkscape:groupmode="layer"
     id="layer1"><path
       style="fill:#454c62;fill-opacity:1;stroke:none;stroke-width:9.73194;stroke-linecap:round;stroke-linejoin:bevel;paint-order:fill markers stroke;stop-color:#000000"
       id="path2117"
       sodipodi:type="arc"
       sodipodi:cx="68.033707"
       sodipodi:cy="68.509827"
       sodipodi:rx="53.068123"
       sodipodi:ry="53.068123"
       sodipodi:start="1.1088251"
       sodipodi:end="1.102134"
       sodipodi:open="true"
       sodipodi:arc-type="arc"
       d="M 91.686889,116.01512 A 53.068123,53.068123 0 0 1 20.568049,92.242441 53.068123,53.068123 0 0 1 44.221726,21.083935 53.068123,53.068123 0 0 1 115.4197,44.618546 53.068123,53.068123 0 0 1 92.00422,115.85579"
       inkscape:label="background" /><path
       d="m 38.438473,61.374658 v 14.406793 1.829887 1.665243 c 0.03269,2.75e-4 0.06537,0.0013 0.09797,0.0043 l 10.975056,1.058211 c 0.574906,0.05591 1.025464,0.518137 1.065486,1.094291 l 0.338373,4.844706 9.573605,0.683111 0.659457,-4.471464 c 0.08515,-0.579723 0.582733,-1.00939 1.169191,-1.00939 h 11.579052 c 0.586088,0 1.083369,0.429632 1.168873,1.00939 l 0.659457,4.471464 9.573923,-0.683111 0.338029,-4.844706 c 0.04042,-0.57611 0.490614,-1.038505 1.065487,-1.094291 l 10.970803,-1.058211 c 0.03269,-0.003 0.06446,-0.004 0.09762,-0.0043 v -1.428433 l 0.0042,-0.0017 v -16.47179 c 1.545775,-1.945557 3.009165,-4.091608 4.130375,-5.89717 -1.71345,-2.916894 -3.812896,-5.52361 -6.056954,-7.938691 -2.081262,1.047595 -4.102776,2.234368 -6.012095,3.497244 -0.955417,-0.949662 -2.031518,-1.726491 -3.088515,-2.53849 -1.038504,-0.834148 -2.208891,-1.445713 -3.318959,-2.158257 0.330546,-2.461175 0.493969,-4.884142 0.559769,-7.412923 -2.864134,-1.441472 -5.918389,-2.397198 -9.007815,-3.083663 -1.23347,2.073053 -2.361418,4.318035 -3.343825,6.512683 -1.164935,-0.194645 -2.33533,-0.26681 -3.507249,-0.280744 v -0.0018 c -0.0082,0 -0.01548,0.0018 -0.02237,0.0018 -0.0073,0 -0.01462,-0.0018 -0.02237,-0.0018 v 0.0018 c -1.174095,0.01376 -2.343587,0.0861 -3.508831,0.280744 -0.981796,-2.194648 -2.109135,-4.43963 -3.344427,-6.512683 -3.087903,0.686465 -6.14246,1.642191 -9.006293,3.083663 0.06537,2.528781 0.228878,4.951748 0.560371,7.412923 -1.112175,0.712527 -2.281057,1.324126 -3.319863,2.158257 -1.055483,0.812042 -2.133398,1.588828 -3.089125,2.53849 -1.909319,-1.262876 -3.930231,-2.449649 -6.012083,-3.497244 -2.24407,2.415081 -4.34229,5.021797 -6.056353,7.938691 1.347066,2.11451 2.79197,4.23978 4.130055,5.89717 z"
       fill="#478cbf"
       id="path250"
       style="display:inline;stroke-width:0.303212"
       inkscape:label="head" /><g
       id="g6008"
       inkscape:label="right_eye"
       transform="matrix(4.3075009,0,0,4.3075009,31.6428,31.049575)"><path
         d="m 6.3889272,8.7271181 c 0,0.8483592 -0.6873737,1.5355919 -1.5354517,1.5355919 -0.8476553,0 -1.5352403,-0.6872327 -1.5352403,-1.5355919 0,-0.8477963 0.687585,-1.5346775 1.5352403,-1.5346775 0.848078,0 1.5354517,0.6868812 1.5354517,1.5346775"
         fill="#ffffff"
         id="path254"
         style="display:inline;stroke-width:0.0703918" /><path
         d="m 6.0194683,8.8181935 c 0,0.5627102 -0.456067,1.0187769 -1.0191997,1.0187769 -0.5628511,0 -1.0191998,-0.4560667 -1.0191998,-1.0187769 0,-0.5627102 0.4563487,-1.0192001 1.0191998,-1.0192001 0.5631327,0 1.0191997,0.4564899 1.0191997,1.0192001"
         fill="#414042"
         id="path256"
         style="display:inline;stroke-width:0.0703918" /></g><g
       id="g6004"
       inkscape:label="left_eye"
       transform="matrix(4.3075009,0,0,4.3075009,31.6428,31.049575)"><path
         d="m 10.541662,8.7271181 c 0,0.8483592 0.687373,1.5355919 1.535592,1.5355919 0.847585,0 1.5351,-0.6872327 1.5351,-1.5355919 0,-0.8477963 -0.687515,-1.5346775 -1.5351,-1.5346775 -0.848219,0 -1.535592,0.6868812 -1.535592,1.5346775"
         fill="#ffffff"
         id="path260"
         style="display:inline;stroke-width:0.0703918" /><path
         d="m 10.911214,8.8181935 c 0,0.5627102 0.455926,1.0187769 1.018636,1.0187769 0.563273,0 1.0192,-0.4560667 1.0192,-1.0187769 0,-0.5627102 -0.455927,-1.0192001 -1.0192,-1.0192001 -0.56271,0 -1.018636,0.4564899 -1.018636,1.0192001"
         fill="#414042"
         id="path262"
         style="display:inline;stroke-width:0.0703918"
         inkscape:label="path262" /></g><path
       style="display:inline;fill:#00e26b;fill-opacity:1;stroke:#00e26b;stroke-width:1.1092px;stroke-linecap:butt;stroke-linejoin:miter;stroke-opacity:1"
       d="m 39.76579,99.906697 c 4.060325,1.545343 7.498556,-0.991754 10.013532,-3.537028 l 9.607244,-10.591363 17.76254,0.09031 8.521046,9.192152 c 1.121128,1.181728 4.40643,6.057372 10.103018,5.178652 4.84815,-1.090839 4.62275,-6.798689 4.50154,-9.404571 L 98.24936,67.785605 C 98.075959,65.212959 96.470187,62.311092 93.915606,59.73995 92.374049,58.355693 89.976627,55.565074 84.156352,55.502155 l -32.119619,0.04215 c -3.271875,0.251672 -5.354991,0.736438 -8.815638,3.567836 -2.768514,2.579751 -4.242352,4.463585 -4.967523,9.38602 l -1.895669,20.581517 c -0.515128,5.363266 -0.167638,8.766472 3.407887,10.826935 z"
       id="path1283"
       sodipodi:nodetypes="ccccccccccccccc"
       inkscape:label="controller" /><g
       id="g5781"
       inkscape:label="buttons"
       style="display:inline"
       transform="matrix(4.3075009,0,0,4.3075009,31.6428,32.019201)"><path
         style="fill:#ffffff;fill-opacity:1;stroke:none;stroke-width:0.0928545;stroke-linecap:round;stroke-linejoin:round;stroke-dasharray:none;stroke-opacity:1;paint-order:fill markers stroke;stop-color:#000000"
         id="path3503"
         sodipodi:type="arc"
         sodipodi:cx="10.818992"
         sodipodi:cy="8.8704472"
         sodipodi:rx="0.6074577"
         sodipodi:ry="0.6074577"
         sodipodi:start="1.1088271"
         sodipodi:end="1.102134"
         sodipodi:open="true"
         sodipodi:arc-type="arc"
         d="M 11.089743,9.414229 A 0.6074577,0.6074577 0 0 1 10.275664,9.1421077 0.6074577,0.6074577 0 0 1 10.546422,8.3275744 0.6074577,0.6074577 0 0 1 11.361408,8.5969698 0.6074577,0.6074577 0 0 1 11.093376,9.4124047" /><path
         style="fill:#ffffff;fill-opacity:1;stroke:none;stroke-width:0.0928545;stroke-linecap:round;stroke-linejoin:round;stroke-dasharray:none;stroke-opacity:1;paint-order:fill markers stroke;stop-color:#000000"
         id="path3503-8"
         sodipodi:type="arc"
         sodipodi:cx="12.071127"
         sodipodi:cy="7.6253495"
         sodipodi:rx="0.6074577"
         sodipodi:ry="0.6074577"
         sodipodi:start="1.1088271"
         sodipodi:end="1.102134"
         sodipodi:open="true"
         sodipodi:arc-type="arc"
         d="M 12.341878,8.1691314 A 0.6074577,0.6074577 0 0 1 11.527799,7.8970101 0.6074577,0.6074577 0 0 1 11.798558,7.0824768 0.6074577,0.6074577 0 0 1 12.613543,7.3518722 0.6074577,0.6074577 0 0 1 12.345511,8.1673071" /><path
         style="fill:#ffffff;fill-opacity:1;stroke:none;stroke-width:0.0928545;stroke-linecap:round;stroke-linejoin:round;stroke-dasharray:none;stroke-opacity:1;paint-order:fill markers stroke;stop-color:#000000"
         id="path3503-8-9"
         sodipodi:type="arc"
         sodipodi:cx="13.323258"
         sodipodi:cy="8.8704481"
         sodipodi:rx="0.6074577"
         sodipodi:ry="0.6074577"
         sodipodi:start="1.1088271"
         sodipodi:end="1.102134"
         sodipodi:open="true"
         sodipodi:arc-type="arc"
         d="M 13.594009,9.41423 A 0.6074577,0.6074577 0 0 1 12.77993,9.1421087 0.6074577,0.6074577 0 0 1 13.050689,8.3275754 0.6074577,0.6074577 0 0 1 13.865674,8.5969708 0.6074577,0.6074577 0 0 1 13.597643,9.4124057" /><path
         style="fill:#ffffff;fill-opacity:1;stroke:none;stroke-width:0.0928545;stroke-linecap:round;stroke-linejoin:round;stroke-dasharray:none;stroke-opacity:1;paint-order:fill markers stroke;stop-color:#000000"
         id="path3503-8-9-4"
         sodipodi:type="arc"
         sodipodi:cx="12.078159"
         sodipodi:cy="10.122581"
         sodipodi:rx="0.6074577"
         sodipodi:ry="0.6074577"
         sodipodi:start="1.1088271"
         sodipodi:end="1.102134"
         sodipodi:open="true"
         sodipodi:arc-type="arc"
         d="M 12.34891,10.666362 A 0.6074577,0.6074577 0 0 1 11.534831,10.394241 0.6074577,0.6074577 0 0 1 11.80559,9.5797078 0.6074577,0.6074577 0 0 1 12.620575,9.8491032 0.6074577,0.6074577 0 0 1 12.352544,10.664538" /></g><path
       d="m 97.771104,79.276589 c 0,0 -0.09857,-0.604581 -0.156116,-0.599162 l -10.970815,1.05852 c -0.872948,0.08429 -1.550932,0.780476 -1.612173,1.65523 l -0.301387,4.31985 -8.487509,0.605527 -0.577315,-3.915076 C 75.5372,81.530646 74.776705,80.8742 73.896489,80.8742 H 62.317454 c -0.879923,0 -1.640376,0.656446 -1.768939,1.527269 l -0.577573,3.915077 -8.487501,-0.605528 -0.301387,-4.319858 c -0.06107,-0.875055 -0.73919,-1.57123 -1.612181,-1.655523 l -10.976268,-1.05821 c -0.05677,-0.0052 -0.09823,0.599764 -0.154908,0.599764 l -0.01462,2.374147 9.295871,1.499075 0.304398,4.358367 c 0.06193,0.882349 0.773509,1.595804 1.656451,1.659178 l 11.689122,0.833804 c 0.04472,0.003 0.0879,0.0048 0.131599,0.0048 0.878401,0 1.637649,-0.656791 1.766203,-1.52758 l 0.594001,-4.028474 h 8.49145 l 0.594001,4.028474 c 0.128244,0.870523 0.888413,1.527287 1.768027,1.527287 0.043,0 0.0861,-0.0014 0.128245,-0.0043 l 11.690635,-0.8338 c 0.88265,-0.06365 1.594893,-0.776864 1.656451,-1.65917 l 0.30414,-4.358375 9.291925,-1.505741 z"
       fill="#ffffff"
       id="path248"
       style="display:inline;stroke-width:0.303212"
       inkscape:label="mouth" /><path
       d="m 87.925146,82.596055 -0.33992,4.870493 c -0.04129,0.587034 -0.507903,1.05427 -1.094894,1.096408 l -11.690326,0.834148 c -0.02925,0.0022 -0.05677,0.003 -0.08515,0.003 -0.580928,0 -1.082173,-0.426277 -1.16798,-1.00969 l -0.67038,-4.546346 h -9.538701 l -0.67038,4.546355 c -0.09006,0.611892 -0.637093,1.051836 -1.253174,1.006663 L 49.723904,88.562956 C 49.13687,88.520806 48.669943,88.053591 48.62901,87.466548 l -0.339921,-4.870493 -9.868636,-0.951477 c 0.0045,1.060627 0.01807,2.222533 0.01807,2.453889 0,10.422599 13.221553,15.432271 29.648355,15.489879 h 0.01978 0.02065 c 16.426803,-0.05759 29.6438,-5.06728 29.6438,-15.489879 0,-0.235587 0.01459,-1.392651 0.01895,-2.453889 z"
       fill="#478cbf"
       id="path252"
       style="display:inline;stroke-width:0.303212"
       inkscape:label="jaw" /><path
       d="m 68.106507,75.85796 c -1.175858,0 -2.128848,-0.866584 -2.128848,-1.934788 v -6.088797 c 0,-1.06731 0.95299,-1.934797 2.128848,-1.934797 1.175858,0 2.130974,0.867487 2.130974,1.934797 v 6.088797 c 0,1.068204 -0.955116,1.934788 -2.130974,1.934788"
       fill="#ffffff"
       id="path258"
       style="display:inline;stroke-width:0.303212"
       inkscape:label="nose" /><path
       style="display:none;fill:#00e26b;fill-opacity:1;stroke:#00e26b;stroke-width:0.257504px;stroke-linecap:butt;stroke-linejoin:miter;stroke-opacity:1"
       d="M 1.8857782,15.760298 C 2.8283953,16.119055 3.6265923,15.53006 4.2104521,14.939165 L 6.3828086,12.621921 C 5.0375171,11.658756 3.5783627,11.218054 1.5347123,8.4687247 L 1.0946266,13.24679 c -0.1195857,1.245099 -0.038914,2.035165 0.7911516,2.513508 z"
       id="path17275"
       sodipodi:nodetypes="cccccc"
       inkscape:label="controller_left_horn" /><path
       sodipodi:type="star"
       style="display:none;fill:#11753e;fill-opacity:1;stroke:#11753e;stroke-width:1.79001;stroke-linecap:round;stroke-linejoin:round;stroke-dasharray:none;stroke-opacity:1;paint-order:fill markers stroke;stop-color:#000000"
       id="path509"
       inkscape:flatsided="true"
       sodipodi:sides="3"
       sodipodi:cx="-30.345362"
       sodipodi:cy="-12.163223"
       sodipodi:r1="8.1978178"
       sodipodi:r2="4.0989089"
       sodipodi:arg1="0"
       sodipodi:arg2="1.0471976"
       inkscape:rounded="0"
       inkscape:randomized="0"
       d="m -22.147544,-12.163223 -12.296727,7.0995182 V -19.262742 Z"
       inkscape:transform-center-x="-1.0247093"
       transform="matrix(0.49999164,0,0,0.49999164,20.066145,14.966592)"
       inkscape:label="triangle" /><g
       id="g5785"
       inkscape:label="d-pad"
       style="display:inline"
       transform="matrix(4.3075009,0,0,4.3075009,31.6428,32.019201)"><path
         style="display:inline;fill:#ffffff;fill-opacity:1;stroke:none;stroke-width:0.266555;stroke-linecap:round;stroke-linejoin:bevel;stroke-opacity:1;-inkscape-stroke:none;paint-order:fill markers stroke;stop-color:#000000"
         id="path1604"
         sodipodi:type="arc"
         sodipodi:cx="4.9170833"
         sodipodi:cy="8.8845148"
         sodipodi:rx="2.0470264"
         sodipodi:ry="2.0470264"
         sodipodi:start="1.1088271"
         sodipodi:end="1.102134"
         sodipodi:open="true"
         sodipodi:arc-type="arc"
         d="M 5.829467,10.716965 A 2.0470264,2.0470264 0 0 1 3.0861625,9.7999635 2.0470264,2.0470264 0 0 1 3.9985722,7.0551284 2.0470264,2.0470264 0 0 1 6.7449302,7.962944 2.0470264,2.0470264 0 0 1 5.8417113,10.710817" /><path
         style="fill:#478cbf;fill-opacity:1;stroke:#478cbf;stroke-width:0.102432;stroke-linecap:butt;stroke-linejoin:round;stroke-dasharray:none;stroke-opacity:1"
         d="m 4.5718181,7.4438408 h 0.7193546 l 4.6e-6,1.0669303 1.0525189,4e-7 0.0072,0.7334233 -1.0598955,-0.01441 -0.00704,1.0672732 H 4.5646115 l 0.0072,-1.067274 -1.0811701,0.0072 -3.421e-4,-0.7262177 1.0743069,-0.0072 z"
         id="path2849"
         sodipodi:nodetypes="ccccccccccccc" /></g></g></svg>
